# xmcd
#
# Track frame offsets:
#	150
#	12781
#	31419
#	47832
#	73410
#	86753
#	106544
#	125536
#
# Disc length: 1965 seconds
#
# Revision: 0
# Processed by: cddbd v1.5PL3 Copyright (c) Steve Scherf et al.
# Submitted via: dBpowerAMP V4.0
#
DISCID=6407ab08
DTITLE=Skeeter Louis and the Stingers - Skeeter Louis and the Stingers
DYEAR=2001
DGENRE=Blues
TTITLE0=Love Is So Blind
TTITLE1=Blues In Her Bones
TTITLE2=Stop Your Whining
TTITLE3=Under The Moon
TTITLE4=Booty Bar Boogie
TTITLE5=Alone In The Dark
TTITLE6=Trail Of Tears
TTITLE7=Aint It Funky
EXTD=
EXTT0=
EXTT1=
EXTT2=
EXTT3=
EXTT4=
EXTT5=
EXTT6=
EXTT7=
PLAYORDER=
